<mxfile host="app.diagrams.net" agent="Mozilla/5.0 (Windows NT 10.0; Win64; x64) AppleWebKit/537.36 (KHTML, like Gecko) Chrome/137.0.0.0 Safari/537.36" version="27.1.4">
  <diagram name="Page-1" id="UjvxalF4VrFvWDZhVvcM">
    <mxGraphModel dx="1426" dy="777" grid="1" gridSize="10" guides="1" tooltips="1" connect="1" arrows="1" fold="1" page="1" pageScale="1" pageWidth="850" pageHeight="1100" math="0" shadow="0">
      <root>
        <mxCell id="0" />
        <mxCell id="1" parent="0" />
        <mxCell id="ww5HeBv7BeGbKaWHU0dh-1" value="Actor" style="shape=umlActor;verticalLabelPosition=bottom;verticalAlign=top;outlineConnect=0;html=1;fontColor=none;noLabel=1;" vertex="1" parent="1">
          <mxGeometry x="40" y="30" width="30" height="60" as="geometry" />
        </mxCell>
        <mxCell id="ww5HeBv7BeGbKaWHU0dh-2" value="" style="html=1;points=[[0,0,0,0,5],[0,1,0,0,-5],[1,0,0,0,5],[1,1,0,0,-5]];perimeter=orthogonalPerimeter;outlineConnect=0;targetShapes=umlLifeline;portConstraint=eastwest;newEdgeStyle={&quot;curved&quot;:0,&quot;rounded&quot;:0};" vertex="1" parent="1">
          <mxGeometry x="45" y="150" width="20" height="470" as="geometry" />
        </mxCell>
        <mxCell id="ww5HeBv7BeGbKaWHU0dh-3" value="&amp;lt;&amp;lt;View&amp;gt;&amp;gt;&lt;div&gt;:SearchWindow&lt;/div&gt;" style="shape=umlLifeline;perimeter=lifelinePerimeter;whiteSpace=wrap;html=1;container=1;dropTarget=0;collapsible=0;recursiveResize=0;outlineConnect=0;portConstraint=eastwest;newEdgeStyle={&quot;curved&quot;:0,&quot;rounded&quot;:0};" vertex="1" parent="1">
          <mxGeometry x="200" y="60" width="100" height="630" as="geometry" />
        </mxCell>
        <mxCell id="ww5HeBv7BeGbKaWHU0dh-4" value="&amp;lt;&amp;lt;Controller&amp;gt;&amp;gt;&lt;div&gt;:SearchHandler&lt;/div&gt;" style="shape=umlLifeline;perimeter=lifelinePerimeter;whiteSpace=wrap;html=1;container=1;dropTarget=0;collapsible=0;recursiveResize=0;outlineConnect=0;portConstraint=eastwest;newEdgeStyle={&quot;curved&quot;:0,&quot;rounded&quot;:0};" vertex="1" parent="1">
          <mxGeometry x="400" y="60" width="100" height="620" as="geometry" />
        </mxCell>
        <mxCell id="ww5HeBv7BeGbKaWHU0dh-14" value="" style="html=1;points=[[0,0,0,0,5],[0,1,0,0,-5],[1,0,0,0,5],[1,1,0,0,-5]];perimeter=orthogonalPerimeter;outlineConnect=0;targetShapes=umlLifeline;portConstraint=eastwest;newEdgeStyle={&quot;curved&quot;:0,&quot;rounded&quot;:0};" vertex="1" parent="ww5HeBv7BeGbKaWHU0dh-4">
          <mxGeometry x="40" y="130" width="20" height="130" as="geometry" />
        </mxCell>
        <mxCell id="ww5HeBv7BeGbKaWHU0dh-15" value="" style="html=1;points=[[0,0,0,0,5],[0,1,0,0,-5],[1,0,0,0,5],[1,1,0,0,-5]];perimeter=orthogonalPerimeter;outlineConnect=0;targetShapes=umlLifeline;portConstraint=eastwest;newEdgeStyle={&quot;curved&quot;:0,&quot;rounded&quot;:0};" vertex="1" parent="ww5HeBv7BeGbKaWHU0dh-4">
          <mxGeometry x="40" y="390" width="20" height="130" as="geometry" />
        </mxCell>
        <mxCell id="ww5HeBv7BeGbKaWHU0dh-5" value="aC:List" style="shape=umlLifeline;perimeter=lifelinePerimeter;whiteSpace=wrap;html=1;container=1;dropTarget=0;collapsible=0;recursiveResize=0;outlineConnect=0;portConstraint=eastwest;newEdgeStyle={&quot;curved&quot;:0,&quot;rounded&quot;:0};" vertex="1" parent="1">
          <mxGeometry x="590" y="60" width="100" height="620" as="geometry" />
        </mxCell>
        <mxCell id="ww5HeBv7BeGbKaWHU0dh-16" value="" style="html=1;points=[[0,0,0,0,5],[0,1,0,0,-5],[1,0,0,0,5],[1,1,0,0,-5]];perimeter=orthogonalPerimeter;outlineConnect=0;targetShapes=umlLifeline;portConstraint=eastwest;newEdgeStyle={&quot;curved&quot;:0,&quot;rounded&quot;:0};" vertex="1" parent="ww5HeBv7BeGbKaWHU0dh-5">
          <mxGeometry x="40" y="150" width="20" height="100" as="geometry" />
        </mxCell>
        <mxCell id="ww5HeBv7BeGbKaWHU0dh-17" value="" style="html=1;points=[[0,0,0,0,5],[0,1,0,0,-5],[1,0,0,0,5],[1,1,0,0,-5]];perimeter=orthogonalPerimeter;outlineConnect=0;targetShapes=umlLifeline;portConstraint=eastwest;newEdgeStyle={&quot;curved&quot;:0,&quot;rounded&quot;:0};" vertex="1" parent="ww5HeBv7BeGbKaWHU0dh-5">
          <mxGeometry x="40" y="400" width="20" height="110" as="geometry" />
        </mxCell>
        <mxCell id="ww5HeBv7BeGbKaWHU0dh-6" value="&amp;lt;&amp;lt;Dam&amp;gt;&amp;gt;&lt;div&gt;:ListDAM&lt;/div&gt;" style="shape=umlLifeline;perimeter=lifelinePerimeter;whiteSpace=wrap;html=1;container=1;dropTarget=0;collapsible=0;recursiveResize=0;outlineConnect=0;portConstraint=eastwest;newEdgeStyle={&quot;curved&quot;:0,&quot;rounded&quot;:0};" vertex="1" parent="1">
          <mxGeometry x="790" y="60" width="100" height="650" as="geometry" />
        </mxCell>
        <mxCell id="ww5HeBv7BeGbKaWHU0dh-18" value="" style="html=1;points=[[0,0,0,0,5],[0,1,0,0,-5],[1,0,0,0,5],[1,1,0,0,-5]];perimeter=orthogonalPerimeter;outlineConnect=0;targetShapes=umlLifeline;portConstraint=eastwest;newEdgeStyle={&quot;curved&quot;:0,&quot;rounded&quot;:0};" vertex="1" parent="ww5HeBv7BeGbKaWHU0dh-6">
          <mxGeometry x="40" y="160" width="20" height="80" as="geometry" />
        </mxCell>
        <mxCell id="ww5HeBv7BeGbKaWHU0dh-19" value="" style="html=1;points=[[0,0,0,0,5],[0,1,0,0,-5],[1,0,0,0,5],[1,1,0,0,-5]];perimeter=orthogonalPerimeter;outlineConnect=0;targetShapes=umlLifeline;portConstraint=eastwest;newEdgeStyle={&quot;curved&quot;:0,&quot;rounded&quot;:0};" vertex="1" parent="ww5HeBv7BeGbKaWHU0dh-6">
          <mxGeometry x="40" y="410" width="20" height="90" as="geometry" />
        </mxCell>
        <mxCell id="ww5HeBv7BeGbKaWHU0dh-7" value="Database" style="shape=umlLifeline;perimeter=lifelinePerimeter;whiteSpace=wrap;html=1;container=1;dropTarget=0;collapsible=0;recursiveResize=0;outlineConnect=0;portConstraint=eastwest;newEdgeStyle={&quot;curved&quot;:0,&quot;rounded&quot;:0};" vertex="1" parent="1">
          <mxGeometry x="970" y="60" width="100" height="630" as="geometry" />
        </mxCell>
        <mxCell id="ww5HeBv7BeGbKaWHU0dh-20" value="" style="html=1;points=[[0,0,0,0,5],[0,1,0,0,-5],[1,0,0,0,5],[1,1,0,0,-5]];perimeter=orthogonalPerimeter;outlineConnect=0;targetShapes=umlLifeline;portConstraint=eastwest;newEdgeStyle={&quot;curved&quot;:0,&quot;rounded&quot;:0};" vertex="1" parent="ww5HeBv7BeGbKaWHU0dh-7">
          <mxGeometry x="40" y="170" width="20" height="50" as="geometry" />
        </mxCell>
        <mxCell id="ww5HeBv7BeGbKaWHU0dh-21" value="" style="html=1;points=[[0,0,0,0,5],[0,1,0,0,-5],[1,0,0,0,5],[1,1,0,0,-5]];perimeter=orthogonalPerimeter;outlineConnect=0;targetShapes=umlLifeline;portConstraint=eastwest;newEdgeStyle={&quot;curved&quot;:0,&quot;rounded&quot;:0};" vertex="1" parent="ww5HeBv7BeGbKaWHU0dh-7">
          <mxGeometry x="40" y="420" width="20" height="70" as="geometry" />
        </mxCell>
        <mxCell id="ww5HeBv7BeGbKaWHU0dh-8" value="" style="endArrow=none;dashed=1;html=1;rounded=0;" edge="1" parent="1" source="ww5HeBv7BeGbKaWHU0dh-2" target="ww5HeBv7BeGbKaWHU0dh-1">
          <mxGeometry width="50" height="50" relative="1" as="geometry">
            <mxPoint x="50" y="210" as="sourcePoint" />
            <mxPoint x="100" y="160" as="targetPoint" />
          </mxGeometry>
        </mxCell>
        <mxCell id="ww5HeBv7BeGbKaWHU0dh-10" value="admin" style="text;html=1;align=center;verticalAlign=middle;whiteSpace=wrap;rounded=0;" vertex="1" parent="1">
          <mxGeometry x="25" y="90" width="60" height="30" as="geometry" />
        </mxCell>
        <mxCell id="ww5HeBv7BeGbKaWHU0dh-11" value="" style="endArrow=none;dashed=1;html=1;rounded=0;" edge="1" parent="1">
          <mxGeometry width="50" height="50" relative="1" as="geometry">
            <mxPoint x="54.5" y="700" as="sourcePoint" />
            <mxPoint x="54.5" y="620" as="targetPoint" />
          </mxGeometry>
        </mxCell>
        <mxCell id="ww5HeBv7BeGbKaWHU0dh-13" value="" style="html=1;points=[[0,0,0,0,5],[0,1,0,0,-5],[1,0,0,0,5],[1,1,0,0,-5]];perimeter=orthogonalPerimeter;outlineConnect=0;targetShapes=umlLifeline;portConstraint=eastwest;newEdgeStyle={&quot;curved&quot;:0,&quot;rounded&quot;:0};" vertex="1" parent="1">
          <mxGeometry x="240" y="430" width="20" height="170" as="geometry" />
        </mxCell>
        <mxCell id="ww5HeBv7BeGbKaWHU0dh-22" value="&amp;lt;&amp;lt;View&amp;gt;&amp;gt;&lt;div&gt;:ProductWindow&lt;/div&gt;" style="shape=umlLifeline;perimeter=lifelinePerimeter;whiteSpace=wrap;html=1;container=1;dropTarget=0;collapsible=0;recursiveResize=0;outlineConnect=0;portConstraint=eastwest;newEdgeStyle={&quot;curved&quot;:0,&quot;rounded&quot;:0};" vertex="1" parent="1">
          <mxGeometry x="200" y="360" width="100" height="40" as="geometry" />
        </mxCell>
        <mxCell id="ww5HeBv7BeGbKaWHU0dh-23" value="&amp;lt;&amp;lt;Controller&amp;gt;&amp;gt;&lt;div&gt;:ProductHandler&lt;/div&gt;" style="shape=umlLifeline;perimeter=lifelinePerimeter;whiteSpace=wrap;html=1;container=1;dropTarget=0;collapsible=0;recursiveResize=0;outlineConnect=0;portConstraint=eastwest;newEdgeStyle={&quot;curved&quot;:0,&quot;rounded&quot;:0};" vertex="1" parent="1">
          <mxGeometry x="400" y="360" width="100" height="40" as="geometry" />
        </mxCell>
        <mxCell id="ww5HeBv7BeGbKaWHU0dh-24" value="aC: Product" style="shape=umlLifeline;perimeter=lifelinePerimeter;whiteSpace=wrap;html=1;container=1;dropTarget=0;collapsible=0;recursiveResize=0;outlineConnect=0;portConstraint=eastwest;newEdgeStyle={&quot;curved&quot;:0,&quot;rounded&quot;:0};" vertex="1" parent="1">
          <mxGeometry x="590" y="360" width="100" height="40" as="geometry" />
        </mxCell>
        <mxCell id="ww5HeBv7BeGbKaWHU0dh-25" value="&amp;lt;&amp;lt;Dam&amp;gt;&amp;gt;&lt;div&gt;:ProductDAM&lt;/div&gt;" style="shape=umlLifeline;perimeter=lifelinePerimeter;whiteSpace=wrap;html=1;container=1;dropTarget=0;collapsible=0;recursiveResize=0;outlineConnect=0;portConstraint=eastwest;newEdgeStyle={&quot;curved&quot;:0,&quot;rounded&quot;:0};" vertex="1" parent="1">
          <mxGeometry x="790" y="360" width="100" height="40" as="geometry" />
        </mxCell>
        <mxCell id="ww5HeBv7BeGbKaWHU0dh-27" value="Chọn mục danh sách sản phẩm" style="html=1;verticalAlign=bottom;endArrow=block;curved=0;rounded=0;" edge="1" parent="1" source="ww5HeBv7BeGbKaWHU0dh-12" target="ww5HeBv7BeGbKaWHU0dh-3">
          <mxGeometry x="NaN" y="119" width="80" relative="1" as="geometry">
            <mxPoint x="70" y="200" as="sourcePoint" />
            <mxPoint x="150" y="200" as="targetPoint" />
            <mxPoint x="-99" y="-65" as="offset" />
          </mxGeometry>
        </mxCell>
        <mxCell id="ww5HeBv7BeGbKaWHU0dh-28" value="" style="html=1;verticalAlign=bottom;endArrow=block;curved=0;rounded=0;" edge="1" parent="1" target="ww5HeBv7BeGbKaWHU0dh-12">
          <mxGeometry width="80" relative="1" as="geometry">
            <mxPoint x="70" y="200" as="sourcePoint" />
            <mxPoint x="250" y="200" as="targetPoint" />
          </mxGeometry>
        </mxCell>
        <mxCell id="ww5HeBv7BeGbKaWHU0dh-12" value="" style="html=1;points=[[0,0,0,0,5],[0,1,0,0,-5],[1,0,0,0,5],[1,1,0,0,-5]];perimeter=orthogonalPerimeter;outlineConnect=0;targetShapes=umlLifeline;portConstraint=eastwest;newEdgeStyle={&quot;curved&quot;:0,&quot;rounded&quot;:0};" vertex="1" parent="1">
          <mxGeometry x="240" y="170" width="20" height="170" as="geometry" />
        </mxCell>
        <mxCell id="ww5HeBv7BeGbKaWHU0dh-29" value="Lấy thông tin danh sách sản phẩm" style="html=1;verticalAlign=bottom;endArrow=block;curved=0;rounded=0;" edge="1" parent="1">
          <mxGeometry x="-0.0501" width="80" relative="1" as="geometry">
            <mxPoint x="260" y="210" as="sourcePoint" />
            <mxPoint x="439.5" y="210" as="targetPoint" />
            <mxPoint as="offset" />
          </mxGeometry>
        </mxCell>
        <mxCell id="ww5HeBv7BeGbKaWHU0dh-30" value="&lt;span&gt;ac = list&lt;/span&gt;&lt;div&gt;&lt;span style=&quot;background-color: light-dark(#ffffff, var(--ge-dark-color, #121212)); color: light-dark(rgb(0, 0, 0), rgb(255, 255, 255));&quot;&gt;(id, tên, giá tiền, số lượng)&lt;/span&gt;&lt;/div&gt;" style="html=1;verticalAlign=bottom;endArrow=block;curved=0;rounded=0;" edge="1" parent="1">
          <mxGeometry x="0.0028" y="10" width="80" relative="1" as="geometry">
            <mxPoint x="460" y="220" as="sourcePoint" />
            <mxPoint x="629.5" y="220" as="targetPoint" />
            <mxPoint as="offset" />
          </mxGeometry>
        </mxCell>
        <mxCell id="ww5HeBv7BeGbKaWHU0dh-31" value="ReadDB(ac)" style="html=1;verticalAlign=bottom;endArrow=block;curved=0;rounded=0;" edge="1" parent="1">
          <mxGeometry width="80" relative="1" as="geometry">
            <mxPoint x="650" y="230" as="sourcePoint" />
            <mxPoint x="829.5" y="230" as="targetPoint" />
          </mxGeometry>
        </mxCell>
        <mxCell id="ww5HeBv7BeGbKaWHU0dh-32" value="Lấy thông tin về ac trong csdl" style="html=1;verticalAlign=bottom;endArrow=block;curved=0;rounded=0;" edge="1" parent="1">
          <mxGeometry width="80" relative="1" as="geometry">
            <mxPoint x="850" y="240" as="sourcePoint" />
            <mxPoint x="1009.5" y="240" as="targetPoint" />
          </mxGeometry>
        </mxCell>
        <mxCell id="ww5HeBv7BeGbKaWHU0dh-33" value="Thông tin về ac" style="html=1;verticalAlign=bottom;endArrow=open;dashed=1;endSize=8;curved=0;rounded=0;" edge="1" parent="1">
          <mxGeometry x="-0.1215" y="20" relative="1" as="geometry">
            <mxPoint x="1010.5" y="270" as="sourcePoint" />
            <mxPoint x="850" y="270" as="targetPoint" />
            <mxPoint as="offset" />
          </mxGeometry>
        </mxCell>
        <mxCell id="ww5HeBv7BeGbKaWHU0dh-34" value="Thông tin về ac" style="html=1;verticalAlign=bottom;endArrow=open;dashed=1;endSize=8;curved=0;rounded=0;" edge="1" parent="1">
          <mxGeometry relative="1" as="geometry">
            <mxPoint x="830.5" y="280" as="sourcePoint" />
            <mxPoint x="650" y="280" as="targetPoint" />
          </mxGeometry>
        </mxCell>
        <mxCell id="ww5HeBv7BeGbKaWHU0dh-35" value="Thông tin các sản phẩm" style="html=1;verticalAlign=bottom;endArrow=open;dashed=1;endSize=8;curved=0;rounded=0;" edge="1" parent="1">
          <mxGeometry relative="1" as="geometry">
            <mxPoint x="630.5" y="290" as="sourcePoint" />
            <mxPoint x="460" y="290" as="targetPoint" />
          </mxGeometry>
        </mxCell>
        <mxCell id="ww5HeBv7BeGbKaWHU0dh-36" value="Thông tin về các sản phẩm" style="html=1;verticalAlign=bottom;endArrow=open;dashed=1;endSize=8;curved=0;rounded=0;" edge="1" parent="1">
          <mxGeometry relative="1" as="geometry">
            <mxPoint x="440.5" y="300" as="sourcePoint" />
            <mxPoint x="260" y="300" as="targetPoint" />
          </mxGeometry>
        </mxCell>
        <mxCell id="ww5HeBv7BeGbKaWHU0dh-37" value="Hiển thị danh sách sản phẩm" style="html=1;verticalAlign=bottom;endArrow=open;dashed=1;endSize=8;curved=0;rounded=0;" edge="1" parent="1">
          <mxGeometry relative="1" as="geometry">
            <mxPoint x="235" y="310" as="sourcePoint" />
            <mxPoint x="70" y="310" as="targetPoint" />
          </mxGeometry>
        </mxCell>
        <mxCell id="ww5HeBv7BeGbKaWHU0dh-38" value="Chọn một sản phẩm muốn xem" style="html=1;verticalAlign=bottom;endArrow=block;curved=0;rounded=0;" edge="1" parent="1">
          <mxGeometry width="80" relative="1" as="geometry">
            <mxPoint x="65" y="450" as="sourcePoint" />
            <mxPoint x="244.5" y="450" as="targetPoint" />
          </mxGeometry>
        </mxCell>
        <mxCell id="ww5HeBv7BeGbKaWHU0dh-39" value="Lấy thông tin sản phẩm" style="html=1;verticalAlign=bottom;endArrow=block;curved=0;rounded=0;" edge="1" parent="1">
          <mxGeometry width="80" relative="1" as="geometry">
            <mxPoint x="260" y="470" as="sourcePoint" />
            <mxPoint x="439.5" y="470" as="targetPoint" />
          </mxGeometry>
        </mxCell>
        <mxCell id="ww5HeBv7BeGbKaWHU0dh-40" value="ac = Product&lt;div&gt;(id, tên, tác giả, NXB, giá tiền)&lt;/div&gt;" style="html=1;verticalAlign=bottom;endArrow=block;curved=0;rounded=0;" edge="1" parent="1">
          <mxGeometry width="80" relative="1" as="geometry">
            <mxPoint x="460" y="480" as="sourcePoint" />
            <mxPoint x="629.5" y="480" as="targetPoint" />
          </mxGeometry>
        </mxCell>
        <mxCell id="ww5HeBv7BeGbKaWHU0dh-41" value="ReadDB(ac)" style="html=1;verticalAlign=bottom;endArrow=block;curved=0;rounded=0;" edge="1" parent="1">
          <mxGeometry width="80" relative="1" as="geometry">
            <mxPoint x="650" y="490" as="sourcePoint" />
            <mxPoint x="829.5" y="490" as="targetPoint" />
          </mxGeometry>
        </mxCell>
        <mxCell id="ww5HeBv7BeGbKaWHU0dh-42" value="Lấy thông tin về ac trong csdl" style="html=1;verticalAlign=bottom;endArrow=block;curved=0;rounded=0;" edge="1" parent="1">
          <mxGeometry width="80" relative="1" as="geometry">
            <mxPoint x="850" y="500" as="sourcePoint" />
            <mxPoint x="1010" y="500" as="targetPoint" />
          </mxGeometry>
        </mxCell>
        <mxCell id="ww5HeBv7BeGbKaWHU0dh-43" value="Hiển thị thông tin ac" style="html=1;verticalAlign=bottom;endArrow=open;dashed=1;endSize=8;curved=0;rounded=0;" edge="1" parent="1">
          <mxGeometry relative="1" as="geometry">
            <mxPoint x="1010.5" y="540" as="sourcePoint" />
            <mxPoint x="850" y="540" as="targetPoint" />
          </mxGeometry>
        </mxCell>
        <mxCell id="ww5HeBv7BeGbKaWHU0dh-44" value="Hiển thị thông tin ac" style="html=1;verticalAlign=bottom;endArrow=open;dashed=1;endSize=8;curved=0;rounded=0;" edge="1" parent="1">
          <mxGeometry relative="1" as="geometry">
            <mxPoint x="830" y="549" as="sourcePoint" />
            <mxPoint x="650" y="549" as="targetPoint" />
          </mxGeometry>
        </mxCell>
        <mxCell id="ww5HeBv7BeGbKaWHU0dh-45" value="Thông tin sản phẩm" style="html=1;verticalAlign=bottom;endArrow=open;dashed=1;endSize=8;curved=0;rounded=0;" edge="1" parent="1">
          <mxGeometry relative="1" as="geometry">
            <mxPoint x="630" y="560" as="sourcePoint" />
            <mxPoint x="460" y="560" as="targetPoint" />
          </mxGeometry>
        </mxCell>
        <mxCell id="ww5HeBv7BeGbKaWHU0dh-46" value="Hiển thị thông tin" style="html=1;verticalAlign=bottom;endArrow=open;dashed=1;endSize=8;curved=0;rounded=0;" edge="1" parent="1" source="ww5HeBv7BeGbKaWHU0dh-15">
          <mxGeometry relative="1" as="geometry">
            <mxPoint x="430" y="570" as="sourcePoint" />
            <mxPoint x="260" y="570" as="targetPoint" />
          </mxGeometry>
        </mxCell>
        <mxCell id="ww5HeBv7BeGbKaWHU0dh-47" value="Hiển thị thông tin sản phẩm" style="html=1;verticalAlign=bottom;endArrow=open;dashed=1;endSize=8;curved=0;rounded=0;" edge="1" parent="1">
          <mxGeometry relative="1" as="geometry">
            <mxPoint x="240" y="580" as="sourcePoint" />
            <mxPoint x="65" y="580" as="targetPoint" />
          </mxGeometry>
        </mxCell>
      </root>
    </mxGraphModel>
  </diagram>
</mxfile>
